<svg xmlns="http://www.w3.org/2000/svg" width="400.758" height="255.7" id="dhl">
  <path fill="#ffcb01" d="M0 0h400.758v255.7H0Z"></path>
  <g fill="#d80613">
    <path d="m74.469 97.345-12.41 16.862h67.637c3.42 0 3.378 1.288 1.706 3.565-1.7 2.3-4.538 6.286-6.269 8.632-.879 1.186-2.465 3.343 2.789 3.343h27.661l8.2-11.138c5.083-6.9.444-21.255-17.732-21.255l-71.578-.009Z"></path>
    <path d="m57.036 152.282 24.93-33.878h30.936c3.42 0 3.378 1.3 1.706 3.565l-6.312 8.6c-.879 1.186-2.465 3.343 2.789 3.343h41.435c-3.436 4.72-14.627 18.37-34.684 18.37Zm142.763-18.38-13.519 18.38h-35.661l13.517-18.38Zm54.622-4.162h-87.213l23.848-32.395H226.7l-13.664 18.577h15.907l13.681-18.577h35.644Zm-3.062 4.162-13.523 18.38h-35.64l13.518-18.38Zm-245.201 7.25h52.523l-2.866 3.9H6.158Zm0-7.25h57.863l-2.874 3.9H6.158Zm0 14.5h47.193l-2.858 3.88H6.158Zm388.45-3.352h-52.336l2.874-3.9h49.461Zm0 7.233h-57.65l2.849-3.881h54.8Zm-44.13-18.381h44.131v3.906h-47Zm-22.842-36.557-23.848 32.394h-37.776l23.865-32.394Zm-64.678 36.557s-2.6 3.565-3.872 5.271c-4.469 6.056-.52 13.1 14.09 13.1h57.249l13.519-18.371h-80.986Z"></path>
  </g>
</svg>
