<svg xmlns="http://www.w3.org/2000/svg" viewBox="0 0 24 24" id="ups">
  <path fill="#F5AF04" d="M2 2.246h.001v11.865c0 5.57 3.99 7.261 10 9.889C17.989 21.374 22 19.693 22 14.111V2.246c-6.196-3.309-15.013-2.664-20 0z"></path>
  <path fill="#331A13" d="M21.079 2.499V14.11c0 4.651-2.835 6.102-9.079 8.878-6.26-2.782-9.083-4.227-9.083-8.878V7.321c5.45-5.038 12.339-5.371 18.162-4.822z"></path>
  <path fill="#F5AF04" d="M18.651 13.783c.032 1.263-1.62 1.235-2.706.264v1.617c1.929 1.155 4.363.436 4.432-1.799.091-2.766-2.882-2.503-2.845-3.932.032-1.091 1.63-1.101 2.583-.118V8.289c-1.518-1.181-4.256-.494-4.246 1.713.007 2.54 2.75 2.282 2.782 3.781zM9.023 15.5V7.896H7.286v6.607c-.277.194-1.737.704-1.737-1.021V7.896H3.807v5.51c0 4.023 4.272 2.744 5.216 2.094z"></path>
  <path fill="#F5AF04" d="M15.869 10.001v.002l.001-.001zM11.655 16.082c1.3.392 3.82-.14 3.82-4.217 0-5.232-4.3-4.345-5.562-3.523v11.43h1.742v-3.69zm0-6.828c.448-.226 2.046-.682 2.046 2.648 0 3.647-1.939 2.782-2.046 2.74V9.254z"></path>
</svg>
